<svg xmlns="http://www.w3.org/2000/svg" width="200" height="200" viewBox="0 0 200 200"><rect width="200" height="200" fill="#1c1c1e"/><g transform="translate(40,40) scale(0.26785714285714285)" fill="#54a0ff"><path d="M224 0c17.7 0 32 14.3 32 32l0 30.1 15-15c9.4-9.4 24.6-9.4 33.9 0s9.4 24.6 0 33.9L256 130.1l0 61.7 53.5-30.9 19.6-73.3c3.4-12.8 16.6-20.4 29.4-17s20.4 16.6 17 29.4l-5.5 20.5 26.1-15c15.3-8.8 34.9-3.6 43.7 11.7s3.6 34.9-11.7 43.7l-26.1 15 20.5 5.5c12.8 3.4 20.4 16.6 17 29.4s-16.6 20.4-29.4 17l-73.3-19.6L307 256l53.5 30.9 73.3-19.6c12.8-3.4 26 4.2 29.4 17s-4.2 26-17 29.4l-20.5 5.5 26.1 15c15.3 8.8 20.5 28.4 11.7 43.7s-28.4 20.5-43.7 11.7l-26.1-15 5.5 20.5c3.4 12.8-4.2 26-17 29.4s-26-4.2-29.4-17l-19.6-73.3L256 321.9l0 61.7 48.8 48.8c9.4 9.4 9.4 24.6 0 33.9s-24.6 9.4-33.9 0l-15-15 0 30.1c0 17.7-14.3 32-32 32s-32-14.3-32-32l0-30.1-15 15c-9.4 9.4-24.6 9.4-33.9 0s-9.4-24.6 0-33.9L192 383.6l0-61.7-53.5 30.9-19.6 73.3c-3.4 12.8-16.6 20.4-29.4 17s-20.4-16.6-17-29.4l5.5-20.5-26.1 15c-15.3 8.8-34.9 3.6-43.7-11.7s-3.6-34.9 11.7-43.7l26.1-15-20.5-5.5c-12.8-3.4-20.4-16.6-17-29.4s16.6-20.4 29.4-17l73.3 19.6L141 256 87.5 225.1 14.2 244.7c-12.8 3.4-26-4.2-29.4-17l0 0c-3.4-12.8 4.2-26 17-29.4l20.5-5.5-26.1-15C-19.2 169-24.4 149.4-15.6 134.1S12.8 113.6 28.1 122.4l26.1 15L48.7 116.9c-3.4-12.8 4.2-26 17-29.4s26 4.2 29.4 17l19.6 73.3L168 208.1l0-61.7L119.2 97.6c-9.4-9.4-9.4-24.6 0-33.9s24.6-9.4 33.9 0l15 15L168 32c0-17.7 14.3-32 32-32l24 0z"/></g></svg>